<?xml version="1.0" encoding="UTF-8" standalone="no"?><svg xmlns="http://www.w3.org/2000/svg" xmlns:xlink="http://www.w3.org/1999/xlink" contentStyleType="text/css" height="189px" preserveAspectRatio="none" style="width:157px;height:189px;background:#FFFFFF;" version="1.1" viewBox="0 0 157 189" width="157px" zoomAndPan="magnify"><defs/><g><!--MD5=[b4d3d50c0abf08df45181fececb9f04d]
class Store--><g id="elem_Store"><rect codeLine="12" fill="#F1F1F1" height="56.2969" id="Store" rx="2.5" ry="2.5" style="stroke:#181818;stroke-width:0.5;" width="141" x="8" y="7"/><ellipse cx="54.25" cy="23" fill="#ADD1B2" rx="11" ry="11" style="stroke:#181818;stroke-width:1.0;"/><path d="M56.5938,18.6719 C55.6563,18.2344 55.0625,18.0938 54.1875,18.0938 C51.5625,18.0938 49.5625,20.1719 49.5625,22.8906 L49.5625,24.0156 C49.5625,26.5938 51.6719,28.4844 54.5625,28.4844 C55.7813,28.4844 56.9375,28.1875 57.6875,27.6406 C58.2656,27.2344 58.5938,26.7813 58.5938,26.3906 C58.5938,25.9375 58.2031,25.5469 57.7344,25.5469 C57.5156,25.5469 57.3125,25.625 57.125,25.8125 C56.6719,26.2969 56.6719,26.2969 56.4844,26.3906 C56.0625,26.6563 55.375,26.7813 54.6094,26.7813 C52.5625,26.7813 51.2656,25.6875 51.2656,23.9844 L51.2656,22.8906 C51.2656,21.1094 52.5156,19.7969 54.25,19.7969 C54.8281,19.7969 55.4375,19.9531 55.9063,20.2031 C56.3906,20.4844 56.5625,20.7031 56.6563,21.1094 C56.7188,21.5156 56.75,21.6406 56.8906,21.7656 C57.0313,21.9063 57.2656,22.0156 57.4844,22.0156 C57.75,22.0156 58.0156,21.875 58.1875,21.6563 C58.2969,21.5 58.3281,21.3125 58.3281,20.8906 L58.3281,19.4688 C58.3281,19.0313 58.3125,18.9063 58.2188,18.75 C58.0625,18.4844 57.7813,18.3438 57.4844,18.3438 C57.1875,18.3438 56.9844,18.4375 56.7656,18.75 L56.5938,18.6719 Z " fill="#000000"/><text fill="#000000" font-family="sans-serif" font-size="14" lengthAdjust="spacing" textLength="40" x="74.75" y="27.8467">Store</text><line style="stroke:#181818;stroke-width:0.5;" x1="9" x2="148" y1="39" y2="39"/><text fill="#000000" font-family="sans-serif" font-size="14" lengthAdjust="spacing" textLength="129" x="14" y="55.9951">[1,1] name: String</text></g><!--MD5=[44a1b4afaef76c16e6c9ec4990ad0c8d]
class Item--><g id="elem_Item"><rect codeLine="16" fill="#F1F1F1" height="72.5938" id="Item" rx="2.5" ry="2.5" style="stroke:#181818;stroke-width:0.5;" width="143" x="7" y="110"/><ellipse cx="57.25" cy="126" fill="#ADD1B2" rx="11" ry="11" style="stroke:#181818;stroke-width:1.0;"/><path d="M59.5938,121.6719 C58.6563,121.2344 58.0625,121.0938 57.1875,121.0938 C54.5625,121.0938 52.5625,123.1719 52.5625,125.8906 L52.5625,127.0156 C52.5625,129.5938 54.6719,131.4844 57.5625,131.4844 C58.7813,131.4844 59.9375,131.1875 60.6875,130.6406 C61.2656,130.2344 61.5938,129.7813 61.5938,129.3906 C61.5938,128.9375 61.2031,128.5469 60.7344,128.5469 C60.5156,128.5469 60.3125,128.625 60.125,128.8125 C59.6719,129.2969 59.6719,129.2969 59.4844,129.3906 C59.0625,129.6563 58.375,129.7813 57.6094,129.7813 C55.5625,129.7813 54.2656,128.6875 54.2656,126.9844 L54.2656,125.8906 C54.2656,124.1094 55.5156,122.7969 57.25,122.7969 C57.8281,122.7969 58.4375,122.9531 58.9063,123.2031 C59.3906,123.4844 59.5625,123.7031 59.6563,124.1094 C59.7188,124.5156 59.75,124.6406 59.8906,124.7656 C60.0313,124.9063 60.2656,125.0156 60.4844,125.0156 C60.75,125.0156 61.0156,124.875 61.1875,124.6563 C61.2969,124.5 61.3281,124.3125 61.3281,123.8906 L61.3281,122.4688 C61.3281,122.0313 61.3125,121.9063 61.2188,121.75 C61.0625,121.4844 60.7813,121.3438 60.4844,121.3438 C60.1875,121.3438 59.9844,121.4375 59.7656,121.75 L59.5938,121.6719 Z " fill="#000000"/><text fill="#000000" font-family="sans-serif" font-size="14" lengthAdjust="spacing" textLength="34" x="77.75" y="130.8467">Item</text><line style="stroke:#181818;stroke-width:0.5;" x1="8" x2="149" y1="142" y2="142"/><text fill="#000000" font-family="sans-serif" font-size="14" lengthAdjust="spacing" textLength="129" x="13" y="158.9951">[1,1] name: String</text><text fill="#000000" font-family="sans-serif" font-size="14" lengthAdjust="spacing" textLength="131" x="13" y="175.292">[1,1] price: double</text></g><!--MD5=[e492be6238526aaa307c5b5abe6ea66e]
reverse link Store to Item--><g id="link_Store_Item"><path codeLine="15" d="M78.5,76.319 C78.5,87.2433 78.5,98.9929 78.5,109.6527 " fill="none" id="Store-backto-Item" style="stroke:#181818;stroke-width:1.0;"/><polygon fill="#181818" points="78.5,63.067,74.5,69.067,78.5,75.067,82.5,69.067,78.5,63.067" style="stroke:#181818;stroke-width:1.0;"/><text fill="#000000" font-family="sans-serif" font-size="13" lengthAdjust="spacing" textLength="36" x="79.5" y="91.0669">items</text><text fill="#000000" font-family="sans-serif" font-size="13" lengthAdjust="spacing" textLength="23" x="53.4516" y="98.8682">0..*</text></g><!--MD5=[fb4c918fb788969c75966f1ecd7d35d3]
@startuml
skinparam class {
BackgroundColor<<New>> #D7F7BA
BorderColor<<New>> #458A03
BackgroundColor<<???>> #FFFFFF
BorderColor<<???>> #BDBDBD
BackgroundColor<<Old>> #E0E6F8
BorderColor<<Old>> #0B0B61
}
skinparam nodeSep 30 
skinparam rankSep 30 
hide empty members   
class Store {
[1,1] name: String 
}
Store *- -"0..*"Item : items
class Item {
[1,1] name: String 
[1,1] price: double 
}
@enduml

PlantUML version 1.2022.3beta1(Unknown compile time)
(GPL source distribution)
Java Runtime: Java(TM) SE Runtime Environment
JVM: Java HotSpot(TM) 64-Bit Server VM
Default Encoding: UTF-8
Language: en
Country: US
--></g></svg>